<?xml version="1.0" encoding="utf-8"?>
<!-- Generator: Adobe Illustrator 22.0.1, SVG Export Plug-In . SVG Version: 6.00 Build 0)  -->
<svg version="1.1" id="Layer_1" xmlns="http://www.w3.org/2000/svg" xmlns:xlink="http://www.w3.org/1999/xlink" x="0px" y="0px"
	 viewBox="0 0 2773.1 530.5" style="enable-background:new 0 0 2773.1 530.5;" xml:space="preserve">
<style type="text/css">
	.st0{fill:#00D563;}
</style>
<g>
	<g>
		<g>
			<g>
				<path class="st0" d="M29,530.5c-16,0-29-13-29-29V29C0,17.3,7.1,6.7,17.9,2.2c10.8-4.5,23.3-2,31.6,6.3l173,173
					c11.3,11.3,11.3,29.7,0,41.1c-11.3,11.3-29.7,11.3-41.1,0L58.1,99.1v402.3C58.1,517.5,45.1,530.5,29,530.5z"/>
			</g>
		</g>
		<g>
			<g>
				<path class="st0" d="M501.5,530.5c-7.6,0-15-2.9-20.5-8.5L308,349c-11.3-11.3-11.3-29.7,0-41c11.3-11.3,29.7-11.3,41,0
					l123.4,123.4V29c0-16,13-29,29-29s29,13,29,29v472.4c0,11.7-7.1,22.3-17.9,26.8C509,529.8,505.2,530.5,501.5,530.5z"/>
			</g>
		</g>
	</g>
	<g>
		<path d="M1042.4,231.4v166.7h-58.1V250.5c0-44.6-23-69.5-61.7-69.5c-37.4,0-68.7,24.6-68.7,70v147h-58.1V134.4
			c0-4.5,2.7-8.5,6.8-10.2c4.1-1.7,8.9-0.8,12.1,2.4l38.7,38.7l0,0c21.3-31.3,54.3-39.3,81.4-39.3
			C997.8,125.9,1042.4,169.4,1042.4,231.4z"/>
	</g>
	<g>
		<path d="M1357.7,265.2c0,7.5-0.6,14.9-1.1,21.6h-196c7.7,47.6,41.3,67.6,78.9,67.6c26.6,0,54.8-10.5,76.7-28l28.8,41.3
			c-32.4,27.7-68.9,37.4-109.1,37.4c-79.5,0-135.7-55.4-135.7-139.5c0-83.1,54-139.5,132.1-139.5
			C1306.5,125.9,1357.4,182.4,1357.7,265.2z M1160.8,242.8h137.6c-6.4-41.3-30.4-65.4-67.3-65.4
			C1189.9,177.4,1166.9,204,1160.8,242.8z"/>
	</g>
	<g>
		<path d="M1596.3,185.4h-101.6v115.4c0,35.7,18.8,49.6,42.1,49.6c18,0,37.7-8,53.4-18l23,46.2c-21.3,14.4-48.2,26.3-81.4,26.3
			c-60.1,0-95.2-32.4-95.2-103V185.4h-52.9v-52.6h52.9V52.5h58.1v80.3h101.6V185.4z"/>
	</g>
	<g>
		<path d="M1847.9,164.7v-31.8h58.1v246.7c0,83.3-53.7,134.6-142.3,134.6c-39.6,0-83.1-10.8-111-30.7l21-49
			c26.9,16.3,57.6,26.9,90,26.9c54.3,0,84.2-29.9,84.2-79.2v-21.3c-19.9,25.5-49.8,38.8-88.3,38.8c-60.7,0-122.9-51-122.9-136.8
			s62.3-136.8,122.9-136.8C1798,125.9,1827.9,139.5,1847.9,164.7z M1696.2,262.7c0,44.6,29.3,82.2,78.3,82.2
			c46.8,0,78.3-35.7,78.3-82.2c0-46.5-31.6-82.2-78.3-82.2C1725.5,180.5,1696.2,217.8,1696.2,262.7z"/>
	</g>
	<g>
		<path d="M2484.5,133.4l-13.8,57.3c-12.2-6.4-29.9-9.7-44-9.7c-36.8,0-63.1,26-63.1,71.2v145.9h-57.9V132.8h57.3v29.9
			c17.4-25.2,44.6-36.8,77-36.8C2457.6,125.9,2471.2,128.1,2484.5,133.4z"/>
	</g>
	<g>
		<path d="M1982.1,299.5V132.8h58.2v147.6c0,44.6,23,69.5,61.8,69.5c37.4,0,68.7-24.6,68.7-70v-147h58.1v263.7
			c0,4.5-2.7,8.5-6.8,10.2c-4.1,1.7-8.9,0.8-12.1-2.4l-38.7-38.7l0,0c-21.3,31.3-54.3,39.3-81.4,39.3
			C2026.6,405,1982.1,361.5,1982.1,299.5z"/>
	</g>
	<g>
		<path d="M2526.4,299.5V132.8h58.1v147.6c0,44.6,23,69.5,61.8,69.5c37.4,0,68.7-24.6,68.7-70v-147h58.1v263.7
			c0,4.5-2.7,8.5-6.8,10.2c-4.1,1.7-8.9,0.8-12.1-2.4l-38.7-38.7l0,0c-21.3,31.3-54.3,39.3-81.4,39.3
			C2570.9,405,2526.4,361.5,2526.4,299.5z"/>
	</g>
</g>
</svg>
