<?xml version="1.0" standalone="no"?>
<!DOCTYPE svg PUBLIC "-//W3C//DTD SVG 20010904//EN"
 "http://www.w3.org/TR/2001/REC-SVG-20010904/DTD/svg10.dtd">
<svg version="1.0" xmlns="http://www.w3.org/2000/svg"
 width="980.000000pt" height="838pt" viewBox="0 0 980 838"
 preserveAspectRatio="xMidYMid meet">
<metadata>
Created by potrace 1.15, written by Peter Selinger 2001-2017
</metadata>
<g transform="translate(0,838) scale(0.1,-0.1)"
fill="#000000" stroke="none">
<path d="M9414 8345 c-1208 -279 -2422 -887 -3729 -1865 -661 -494 -1084 -860
-1684 -1455 -662 -656 -1182 -1228 -1657 -1820 -67 -82 -138 -165 -159 -183
-33 -29 -43 -33 -74 -28 -83 14 -339 18 -411 6 -141 -24 -325 -140 -423 -267
-137 -179 -185 -393 -138 -620 12 -55 21 -108 21 -117 0 -9 -148 -195 -328
-413 -605 -735 -737 -903 -797 -1017 -38 -74 -42 -103 -20 -145 25 -49 302
-282 430 -362 80 -51 143 -61 190 -31 31 19 245 268 595 692 549 665 630 758
694 795 23 13 73 31 111 40 269 64 494 293 550 560 24 113 29 119 127 145 773
206 1258 615 1518 1282 96 245 163 530 226 963 20 138 37 251 39 253 1 1 15
-3 31 -9 45 -17 435 -28 669 -19 289 12 432 45 654 151 359 171 603 445 769
865 72 181 106 331 142 629 28 235 28 235 54 235 11 0 68 -10 126 -22 97 -21
132 -22 450 -22 487 0 597 22 925 183 256 126 396 231 635 477 147 151 219
236 340 399 53 71 103 136 112 142 13 11 15 -32 21 -385 9 -515 9 -3533 0
-4310 l-6 -601 -51 -11 c-75 -16 -125 -53 -126 -93 0 -34 102 -107 150 -107
12 0 24 -9 29 -22 26 -70 18 -731 -9 -804 -16 -41 -48 -72 -104 -101 -40 -21
-60 -24 -107 -21 -116 8 -165 80 -184 267 -14 135 -16 141 -54 164 -41 24 -63
21 -93 -10 -37 -38 -48 -74 -48 -148 0 -191 98 -363 247 -433 52 -24 70 -27
163 -27 97 0 110 2 164 30 112 56 194 163 215 280 8 44 30 631 31 811 0 7 21
15 47 19 113 17 153 141 58 180 -19 8 -46 15 -59 15 -17 0 -32 10 -43 27 -17
25 -19 76 -25 633 -3 333 -6 1561 -6 2730 l-1 2125 51 40 c72 57 91 85 96 149
6 75 -23 134 -85 175 -58 39 -114 40 -259 6z m-184 -450 c0 -11 -66 -114 -108
-169 -313 -411 -558 -633 -876 -793 -292 -147 -639 -211 -989 -184 -156 12
-307 34 -354 52 -25 9 -25 10 -8 29 53 59 468 290 930 520 468 232 557 269
1130 466 220 76 275 92 275 79z m-2653 -1404 c-20 -366 -140 -758 -311 -1015
-59 -88 -186 -220 -281 -291 -77 -58 -293 -165 -412 -204 -163 -53 -188 -56
-598 -55 -387 0 -455 4 -455 29 0 56 421 438 955 864 485 388 1070 811 1097
794 7 -4 9 -46 5 -122z m-2301 -1843 c-11 -132 -44 -351 -77 -512 -188 -923
-629 -1428 -1451 -1660 -121 -34 -158 -32 -171 9 -5 17 -31 78 -59 137 l-50
107 83 108 c202 263 388 486 683 823 462 526 989 1070 1038 1070 7 0 8 -26 4
-82z m-2274 -2055 c85 -40 131 -82 165 -151 25 -51 28 -67 28 -162 0 -135 -17
-181 -90 -248 -85 -78 -133 -97 -240 -96 -107 1 -160 20 -231 86 -58 53 -88
100 -108 168 -31 104 -11 201 59 289 114 143 266 185 417 114z m-559 -947 c6
-15 -119 -185 -313 -426 -205 -256 -470 -570 -547 -650 -60 -63 -73 -72 -79
-57 -4 12 5 35 30 72 47 67 444 563 641 800 225 272 254 299 268 261z"/>
</g>
</svg>
