<?xml version="1.0" standalone="no"?>
<!DOCTYPE svg PUBLIC "-//W3C//DTD SVG 20010904//EN"
 "http://www.w3.org/TR/2001/REC-SVG-20010904/DTD/svg10.dtd">
<svg version="1.0" xmlns="http://www.w3.org/2000/svg"
 width="230.000000pt" height="226.000000pt" viewBox="0 0 230.000000 226.000000"
 preserveAspectRatio="xMidYMid meet">
<metadata>
Created by potrace 1.15, written by Peter Selinger 2001-2017
</metadata>
<g transform="translate(0.000000,226.000000) scale(0.100000,-0.100000)"
fill="#707070" stroke="none">
<path d="M428 1948 c-58 -36 -127 -141 -128 -192 0 -17 4 -16 33 11 69 66 156
90 216 59 70 -37 120 -118 222 -360 62 -147 102 -201 188 -249 l56 -32 -58 -7
c-116 -15 -295 -131 -318 -208 -23 -78 46 -211 144 -277 73 -49 125 -52 278
-17 22 5 27 2 35 -28 7 -25 16 -34 36 -36 37 -4 57 27 51 81 l-4 42 66 38 c63
37 66 40 50 57 -11 12 -13 20 -6 25 16 9 13 22 -6 29 -9 4 -32 -4 -54 -19 -21
-14 -42 -25 -45 -25 -9 0 1 229 10 238 11 10 94 -38 123 -72 41 -48 78 -140
134 -328 59 -200 72 -228 129 -287 52 -53 93 -71 165 -71 93 0 150 39 199 137
41 82 35 90 -32 43 -90 -64 -161 -67 -226 -10 -52 46 -91 114 -161 280 -35 82
-75 170 -90 195 -27 47 -81 92 -135 115 -43 18 -37 26 23 33 99 12 264 114
302 188 8 15 15 39 15 53 0 47 -39 131 -87 185 -81 93 -175 120 -292 85 -63
-18 -77 -15 -86 24 -7 35 -35 46 -64 25 -17 -11 -21 -25 -21 -66 l0 -52 -66
-39 c-60 -36 -65 -41 -48 -53 14 -10 15 -16 6 -25 -35 -35 10 -43 65 -12 l45
27 -4 -116 c-1 -63 -6 -119 -10 -123 -12 -11 -64 16 -103 53 -48 46 -86 125
-130 268 -20 66 -48 156 -61 200 -29 92 -76 163 -136 202 -33 23 -55 28 -112
31 -60 3 -77 -1 -108 -20z m1072 -462 c54 -28 70 -46 70 -81 0 -95 -173 -205
-321 -205 l-50 0 3 147 3 147 25 8 c48 14 232 3 270 -16z m-430 -540 c0 -105
-3 -147 -12 -153 -7 -4 -54 -9 -104 -11 -151 -7 -254 36 -254 106 0 34 61 108
116 143 52 32 141 58 202 58 l52 1 0 -144z"/>
</g>
</svg>
